<?xml version="1.0" encoding="UTF-8"?>
<svg id="_图层_1" data-name="图层 1" xmlns="http://www.w3.org/2000/svg" xmlns:xlink="http://www.w3.org/1999/xlink" viewBox="0 0 152.12 140.71">
  <defs>
    <style>
      .cls-1 {
        fill: url(#_未命名的渐变_7-3);
      }

      .cls-2 {
        fill: url(#_未命名的渐变_7-4);
      }

      .cls-3 {
        fill: url(#_未命名的渐变_7-2);
      }

      .cls-4 {
        fill: url(#_未命名的渐变_7);
      }
    </style>
    <linearGradient id="_未命名的渐变_7" data-name="未命名的渐变 7" x1="-2003.81" y1="76.49" x2="-2053.08" y2="-8.85" gradientTransform="translate(-1921.33) rotate(-180) scale(1 -1)" gradientUnits="userSpaceOnUse">
      <stop offset="0" stop-color="#00cdab"/>
      <stop offset=".12" stop-color="#00b5af"/>
      <stop offset=".41" stop-color="#0081ba"/>
      <stop offset=".67" stop-color="#005bc2"/>
      <stop offset=".87" stop-color="#0044c7"/>
      <stop offset="1" stop-color="#003cc9"/>
    </linearGradient>
    <linearGradient id="_未命名的渐变_7-2" data-name="未命名的渐变 7" x1="59.12" y1="57.23" x2="20.81" y2="-9.11" gradientTransform="matrix(1, 0, 0, 1, 0, 0)" xlink:href="#_未命名的渐变_7"/>
    <linearGradient id="_未命名的渐变_7-3" data-name="未命名的渐变 7" x1="-2216.98" y1="2503.29" x2="-2254.25" y2="2438.73" gradientTransform="translate(-2123.43 2588.49) rotate(-180)" xlink:href="#_未命名的渐变_7"/>
    <linearGradient id="_未命名的渐变_7-4" data-name="未命名的渐变 7" x1="272.32" y1="2523.47" x2="223.4" y2="2438.73" gradientTransform="translate(-202.1 2588.49) scale(1 -1)" xlink:href="#_未命名的渐变_7"/>
  </defs>
  <path class="cls-4" d="M93.35,82.11c-.9,0-1.81-.29-2.57-.88-1.83-1.42-2.15-4.05-.73-5.88L142.17,8.38h-35.13l-27.03,36.24c-1.39,1.85-4.01,2.24-5.86,.85-1.85-1.38-2.24-4.01-.85-5.86L100.81,2.72c1.37-1.76,3.35-2.72,5.49-2.72h38.93c2.61,0,4.96,1.45,6.14,3.77s.95,5.08-.59,7.18c-.02,.03-.05,.06-.07,.09l-54.05,69.44c-.83,1.06-2.06,1.62-3.31,1.62Z"/>
  <path class="cls-3" d="M45.17,64.64c-1.25,0-2.48-.55-3.31-1.62L1.41,11.05s-.05-.06-.07-.09C-.2,8.86-.43,6.1,.75,3.77S4.28,0,6.89,0H45.82c2.14,0,4.12,.97,5.43,2.65l28.71,36.89c1.42,1.83,1.09,4.46-.73,5.88-1.83,1.42-4.46,1.09-5.88-.73L45.09,8.38H9.95L48.47,57.88c1.42,1.83,1.09,4.46-.73,5.88-.76,.6-1.67,.88-2.57,.88Z"/>
  <path class="cls-1" d="M144.63,140.71h-38.93c-2.14,0-4.12-.97-5.43-2.66l-27.52-35.35c-1.42-1.83-1.09-4.46,.73-5.88,1.83-1.42,4.46-1.09,5.88,.73l27.07,34.77h35.14l-36.9-47.41c-1.42-1.83-1.09-4.46,.73-5.88,1.83-1.42,4.46-1.09,5.88,.73l38.82,49.88s.05,.06,.07,.1c1.54,2.1,1.77,4.86,.59,7.19-1.18,2.33-3.53,3.77-6.14,3.77Z"/>
  <path class="cls-2" d="M46.42,140.71H7.49c-2.61,0-4.96-1.45-6.14-3.77-1.18-2.33-.95-5.08,.59-7.19,.03-.04,.07-.09,.1-.13L56.49,61.21c1.44-1.81,4.08-2.11,5.89-.67,1.81,1.44,2.11,4.08,.67,5.89L10.59,132.33H45.69l27.07-34.77c1.42-1.83,4.05-2.15,5.88-.73,1.83,1.42,2.15,4.05,.73,5.88l-27.52,35.35c-1.31,1.69-3.29,2.66-5.43,2.66Z"/>
</svg>